<svg width="170" height="87" viewBox="0 0 170 87" fill="none" xmlns="http://www.w3.org/2000/svg">
<path d="M18.7028 12.8068C18.8291 12.7263 18.9343 12.6458 19.0185 12.5653C19.1447 12.4848 19.2921 12.4245 19.4604 12.3842C19.6708 12.4647 19.8813 12.5653 20.0917 12.6861C20.3022 12.8068 20.5126 12.9074 20.7231 12.9879C21.4386 13.672 22.0278 14.5574 22.4908 15.644C22.7012 16.0867 22.9958 16.4892 23.3746 16.8514C23.7955 17.2136 24.1323 17.6361 24.3847 18.1191C24.553 18.441 24.7214 18.7227 24.8899 18.9642C25.0582 19.2057 25.2476 19.4874 25.4581 19.8093C26.1314 20.6947 26.7628 21.6606 27.352 22.707C27.9832 23.7533 28.6146 24.7394 29.246 25.665C29.8352 26.671 30.4034 27.6773 30.9505 28.6833C31.5398 29.6492 32.1501 30.6353 32.7815 31.6413C32.7815 31.8425 32.8656 32.0639 33.0339 32.3054C33.076 32.9492 33.076 33.3517 33.0339 33.5127C33.2022 33.7943 33.4127 34.0157 33.6653 34.1766C33.9598 34.3376 34.2124 34.5187 34.4229 34.7199C34.465 35.042 34.4018 35.3438 34.2335 35.6254C34.1073 35.8669 34.023 36.1488 33.9809 36.4707C33.4337 37.356 32.8445 38.2615 32.2133 39.1871C31.8764 39.6299 31.5609 40.0926 31.2661 40.5757C31.0138 41.0585 30.719 41.5212 30.3824 41.964C30.1719 42.4068 30.0036 42.7489 29.8774 42.9902C29.751 43.1914 29.6459 43.3927 29.5616 43.5939C29.1406 44.0367 28.8461 44.5397 28.6778 45.1031C28.5095 45.6263 28.1937 46.1091 27.7308 46.5519C27.8149 47.0348 28.1307 47.5581 28.6778 48.1216C29.2671 48.6447 29.751 49.0671 30.1298 49.3893C30.2562 49.6306 30.4034 49.852 30.5718 50.0532C30.7401 50.2141 30.9084 50.3952 31.0767 50.5965C31.161 50.6771 31.2453 50.7574 31.3293 50.838C31.4555 50.9184 31.5819 50.999 31.7081 51.0793C31.7503 51.3612 31.8554 51.6027 32.0237 51.804C32.2342 51.9649 32.4657 52.0856 32.7183 52.1662C32.8866 52.6087 33.0339 52.8905 33.1603 53.0112C33.3286 53.0918 33.4127 53.1923 33.4127 53.313C33.4127 53.5142 33.3705 53.7356 33.2865 53.9771C33.0339 54.2587 32.7604 54.5607 32.4657 54.8826C32.1712 55.1642 31.8554 55.4058 31.5187 55.607C31.3925 55.8485 31.2453 56.1503 31.0767 56.5125C30.9505 56.8344 30.7822 57.1563 30.5718 57.4784C30.4034 57.8406 30.214 58.1625 30.0036 58.4441C29.7931 58.726 29.5826 58.9071 29.3722 58.9874C28.8251 58.7058 28.5516 58.4242 28.5516 58.1424C28.4252 58.1021 28.2147 57.9411 27.9202 57.6595C27.6676 57.418 27.5414 57.257 27.5414 57.1764C26.4891 56.613 25.6475 55.8685 25.0161 54.9428C24.8899 54.8625 24.7635 54.802 24.6373 54.7617C24.553 54.6814 24.4479 54.6209 24.3217 54.5806C24.2375 54.3796 24.1113 54.2386 23.9428 54.1582C23.8165 54.0373 23.7113 53.8764 23.6272 53.6751C23.5009 53.5948 23.3326 53.6953 23.1221 53.9771C22.9116 54.2587 22.6802 54.5806 22.4277 54.9428C22.2172 55.305 22.0278 55.6674 21.8594 56.0296C21.6911 56.3515 21.5859 56.5528 21.5438 56.6331C21.2913 56.8344 21.0387 57.0356 20.7862 57.2369C20.5758 57.4784 20.3443 57.6996 20.0917 57.9008C19.5867 58.263 19.2289 58.5247 19.0185 58.6857C18.8501 58.8466 18.7239 59.0881 18.6397 59.41C18.2609 59.571 18.0294 59.6717 17.9452 59.712C17.861 59.7521 17.7769 59.7722 17.6927 59.7722C17.4823 59.7722 17.2297 59.6314 16.9351 59.3498C16.6826 59.1083 16.4721 58.9272 16.3038 58.8063C16.0933 58.7662 15.8618 58.7259 15.6093 58.6857C15.3989 58.6454 15.2095 58.5247 15.0411 58.3235C14.7886 57.8807 14.5992 57.5185 14.4729 57.2369C14.3887 56.915 14.1783 56.6936 13.8416 56.5729C13.8416 56.3717 13.7785 56.2307 13.6522 56.1503C13.568 56.0697 13.4628 55.9491 13.3365 55.7881C12.9998 55.3453 12.6842 54.8222 12.3895 54.2184C12.137 53.6149 11.8424 53.0515 11.5057 52.5283C11.169 52.0453 10.7902 51.5624 10.3693 51.0793C9.9484 50.5965 9.54857 50.1338 9.16978 49.691C9.0435 49.5301 8.8962 49.3691 8.72785 49.2082C8.60157 49.0472 8.47532 48.886 8.34904 48.7251C8.0965 48.2825 7.82295 47.8599 7.52832 47.4574C7.27579 47.0148 7.00221 46.5922 6.7076 46.1897C6.62342 46.0691 6.51821 45.9683 6.39193 45.888C6.30774 45.7671 6.22358 45.6263 6.1394 45.4653C5.88686 45.1434 5.67642 44.8213 5.50807 44.4994C5.33973 44.1775 5.15033 43.8354 4.93989 43.4733C4.60317 42.7892 4.20334 42.1653 3.74036 41.6018C3.31948 40.9981 2.94067 40.3744 2.60397 39.7304C2.26726 39.006 1.93056 38.3622 1.59385 37.7988C1.25714 37.1951 0.962521 36.6115 0.709989 36.048C0.709989 35.9274 0.688945 35.8065 0.646857 35.6858C0.646857 35.5652 0.625813 35.4244 0.583725 35.2632C0.794166 34.7401 0.941477 34.3779 1.02565 34.1766C1.15192 33.9754 1.21505 33.7744 1.21505 33.5731C1.29923 33.4522 1.38341 33.3316 1.46758 33.2109C1.59385 33.0497 1.67802 32.8686 1.72011 32.6676C2.73023 31.3798 3.65618 30.0517 4.49796 28.6833C5.38182 27.3151 6.26568 25.9668 7.14953 24.6387C8.11755 23.2705 9.00141 21.9021 9.8011 20.5338C10.6429 19.1252 11.5267 17.7569 12.4527 16.4288C12.4527 16.1873 12.4948 16.0264 12.5789 15.9459C12.7052 15.8251 12.7683 15.6843 12.7683 15.5233C12.9788 15.3221 13.1682 15.0806 13.3365 14.7989C13.5049 14.5172 13.6312 14.2355 13.7153 13.9538C13.8416 13.7525 13.9678 13.5513 14.0941 13.3501C14.2625 13.1489 14.3887 12.9275 14.4729 12.6861C14.6413 12.5653 14.7675 12.4245 14.8517 12.2635C14.978 12.1025 15.1042 11.9415 15.2305 11.7805C15.441 11.7001 15.5883 11.5995 15.6724 11.4787C15.7566 11.358 15.967 11.2976 16.3038 11.2976C16.43 11.2976 16.5353 11.3177 16.6194 11.358C16.7457 11.358 16.872 11.3379 16.9982 11.2976C17.2087 11.3781 17.356 11.4988 17.4402 11.6598C17.5664 11.8208 17.7558 11.9214 18.0083 11.9616C18.0925 12.1629 18.1977 12.3238 18.324 12.4446C18.4924 12.5251 18.6186 12.6458 18.7028 12.8068ZM21.9857 28.5022C21.6069 27.9387 21.2492 27.3954 20.9124 26.8723C20.6178 26.3088 20.2601 25.7857 19.8392 25.3028C19.7971 25.182 19.6919 25.0009 19.5235 24.7596C19.3973 24.4777 19.2289 24.216 19.0185 23.9747C18.8501 23.7332 18.6607 23.5118 18.4503 23.3105C18.2398 23.1093 18.0715 23.0088 17.9452 23.0088C17.6506 23.21 17.377 23.3911 17.1245 23.5521C16.9561 24.0349 16.7247 24.518 16.43 25.0009C16.1354 25.4839 15.8408 25.9466 15.5462 26.3894C15.2516 26.7113 14.978 27.0131 14.7255 27.2949C14.515 27.5362 14.3467 27.8785 14.2204 28.3211C14.0099 28.5223 13.8205 28.7235 13.6522 28.9248C13.5259 29.0857 13.3786 29.2668 13.2103 29.4681C13.084 29.8706 12.8525 30.3131 12.5158 30.7962C12.2212 31.2791 11.9055 31.7619 11.5688 32.245C11.2321 32.7278 10.8954 33.2109 10.5587 33.6938C10.222 34.1766 9.92736 34.6194 9.67482 35.0219C9.38022 35.3841 9.21187 35.6455 9.16978 35.8065C9.16978 35.9677 9.14873 36.1286 9.10664 36.2896C9.31708 36.853 9.61171 37.3762 9.9905 37.859C10.3693 38.3421 10.706 38.8451 11.0006 39.3682C11.3373 39.9317 11.632 40.475 11.8845 40.9981C12.137 41.5212 12.4948 42.0043 12.9577 42.4469C13.7153 43.3725 14.4098 44.3586 15.0411 45.4049C15.7145 46.4111 16.4932 47.3166 17.377 48.1216C17.6716 47.88 17.861 47.578 17.9452 47.2159C18.2398 46.894 18.5134 46.5519 18.7659 46.1897C19.0185 45.8275 19.25 45.4855 19.4604 45.1636C19.6288 44.7611 19.8392 44.3586 20.0917 43.9561C20.4705 43.3927 20.8493 42.8695 21.2281 42.3867C21.649 41.8635 21.9857 41.3202 22.2382 40.7568C22.4908 40.4347 22.7012 40.1128 22.8696 39.7909C23.0379 39.4287 23.2905 39.1068 23.6272 38.8249C23.7113 38.3421 23.8797 37.9396 24.1323 37.6177C24.4268 37.2555 24.7005 36.8933 24.9529 36.5311C25.0372 36.2493 25.1423 36.0077 25.2687 35.8065C25.3949 35.6055 25.5211 35.3841 25.6475 35.1425C25.3528 34.3376 24.974 33.5731 24.5111 32.8487C24.0902 32.084 23.6482 31.3395 23.1852 30.6151C23.059 30.3333 22.9327 30.0517 22.8064 29.7698C22.6802 29.4882 22.5329 29.2467 22.3645 29.0454L21.9857 28.5022ZM39.6557 30.7291C39.9177 30.8722 40.1047 31.0689 40.217 31.3194C40.3666 31.5339 40.5725 31.6951 40.8342 31.8022C41.0588 31.9096 41.3019 31.9632 41.5638 31.9632C41.8258 31.9632 42.0501 31.9991 42.2373 32.0705C42.387 32.1422 42.499 32.2315 42.574 32.3389C42.6487 32.4462 42.7236 32.5536 42.7983 32.6608C43.0229 32.8398 43.3596 33.0007 43.8085 33.1438C44.2948 33.2869 44.613 33.4479 44.7627 33.6267C45.0244 33.9486 45.2116 34.36 45.3237 34.8609C45.4733 35.3616 45.5856 35.8983 45.6606 36.4707C45.7353 37.0073 45.7913 37.5616 45.8289 38.134C45.8662 38.6706 45.9223 39.1358 45.9972 39.5292C46.0719 40.352 46.1655 41.1748 46.2778 41.9977C46.3899 42.7846 46.4462 43.5896 46.4462 44.4122C46.4462 45.235 46.4088 46.0757 46.3339 46.9342C46.2592 47.7928 46.2216 48.6335 46.2216 49.4563C46.2216 49.8856 46.2029 50.422 46.1655 51.0661C46.1655 51.7099 46.0159 52.2108 45.7166 52.5684C45.6792 52.7115 45.6606 52.962 45.6606 53.3198V55.0369C45.6606 55.2514 45.6792 55.4662 45.7166 55.6807C45.7539 55.8955 45.7726 56.1279 45.7726 56.3783C45.7726 56.7719 45.6606 57.0581 45.436 57.2369C45.3237 57.2012 45.1927 57.1833 45.0431 57.1833C44.931 57.1833 44.8187 57.1833 44.7064 57.1833C44.2948 57.1833 43.9955 57.2547 43.8085 57.3978C43.3969 57.3621 43.0043 57.3264 42.63 57.2905C42.256 57.2547 41.8631 57.2369 41.4515 57.2369C40.8156 57.2369 40.1236 57.3264 39.3754 57.5052C39.2257 57.1474 39.1508 56.7719 39.1508 56.3783C39.1881 55.9848 39.1134 55.6272 38.9264 55.305C38.8888 55.1979 38.8515 55.1084 38.8141 55.0369C38.8141 54.9296 38.8141 54.8222 38.8141 54.7148C38.9264 54.2855 38.9824 53.9993 38.9824 53.8562C38.9824 53.6774 38.9824 53.4986 38.9824 53.3198C38.9824 52.8189 38.9638 52.3182 38.9264 51.8172C38.8888 51.2806 38.9075 50.762 38.9824 50.2611C38.9824 50.0823 39.0011 49.9213 39.0385 49.7782C39.1134 49.6351 39.1508 49.4742 39.1508 49.2952C39.1508 49.1163 39.1134 48.9911 39.0385 48.9197C38.9638 48.848 38.9264 48.7587 38.9264 48.6514C38.9264 48.544 38.9264 48.3652 38.9264 48.1147C38.9638 47.8642 39.0198 47.7033 39.0947 47.6319C39.0947 47.3457 39.0947 47.0773 39.0947 46.8269C39.1321 46.5407 39.1508 46.2724 39.1508 46.0221C39.1508 45.4498 39.1321 44.8774 39.0947 44.305C39.0571 43.7326 39.0385 43.1781 39.0385 42.6415C39.0385 42.391 39.0198 42.2301 38.9824 42.1586C38.9451 42.087 38.9075 42.0334 38.8701 41.9977C38.8328 41.9617 38.7768 41.9439 38.7018 41.9439C38.6271 41.9082 38.5708 41.8365 38.5335 41.7294C38.6831 40.1553 38.6271 38.5813 38.3652 37.0073C38.1032 35.4333 37.9723 33.8412 37.9723 32.2315C37.9723 31.9812 38.0096 31.8022 38.0846 31.6951C38.1593 31.5517 38.2529 31.4446 38.3652 31.3729C38.4775 31.3015 38.5709 31.2298 38.6458 31.1584C38.7579 31.051 38.8328 30.9079 38.8701 30.7291C39.1694 30.8006 39.4314 30.8006 39.6557 30.7291ZM60.774 18.2264C60.9237 18.1906 61.0547 18.137 61.167 18.0654C61.2793 17.9939 61.4102 17.9581 61.5599 17.9581C61.6719 17.9939 61.7469 18.0654 61.7842 18.1727C61.8592 18.2801 61.9526 18.3695 62.0649 18.441C62.1771 18.3695 62.2705 18.2979 62.3455 18.2264C62.4578 18.1549 62.5698 18.1012 62.6821 18.0654C63.0564 18.1727 63.262 18.3516 63.2994 18.602C63.4866 18.6736 63.655 18.763 63.8046 18.8703C63.9543 18.9419 64.1226 18.9955 64.3096 19.0313C64.3845 19.1744 64.4779 19.2817 64.5902 19.3532C64.7025 19.4248 64.8335 19.5321 64.9831 19.6752C65.3571 19.7467 65.8434 19.9435 66.442 20.2655C67.0782 20.5874 67.5831 20.8378 67.9571 21.0167C68.3314 21.1956 68.7054 21.3744 69.0796 21.5533C69.4536 21.7322 69.8092 21.9289 70.1458 22.1436C70.4825 22.3224 70.8194 22.537 71.156 22.7874C71.4927 23.0022 71.848 23.181 72.2222 23.3241C72.5589 23.7176 72.9891 23.9681 73.513 24.0752C74.0367 24.1826 74.5043 24.3793 74.9159 24.6655C75.2525 24.8445 75.5705 25.0412 75.8698 25.2557C76.1691 25.4347 76.4684 25.6135 76.7677 25.7923C76.88 25.9714 77.011 26.1142 77.1606 26.2216C77.3476 26.329 77.5159 26.4721 77.6656 26.6509C78.4138 27.0444 78.8441 27.3485 78.9564 27.5632C79.0687 27.6347 79.237 27.7421 79.4614 27.8851C79.6859 28.0282 79.9103 28.1892 80.1349 28.368C80.3593 28.5111 80.5652 28.672 80.7522 28.8511C80.9392 28.9942 81.0515 29.1373 81.0888 29.2803C80.9392 29.6022 80.8645 29.8706 80.8645 30.0851C80.8645 30.2641 80.7895 30.4251 80.6399 30.5682C80.8645 30.8544 80.9765 31.1227 80.9765 31.3729C80.7895 31.8022 80.4715 32.16 80.0226 32.4462C79.9103 32.7324 79.7233 32.9648 79.4614 33.1438C79.237 33.2869 79.0874 33.5015 79.0124 33.7876C78.7131 33.9664 78.5261 34.1095 78.4514 34.2169C78.4138 34.3243 78.3578 34.4317 78.2829 34.5388C77.5722 35.2543 76.8987 35.8804 76.2627 36.4169C75.6641 36.9178 75.1029 37.4723 74.5792 38.0804C74.205 38.2592 73.887 38.4918 73.6251 38.778C73.3634 39.0285 73.1201 39.3146 72.8955 39.6365C72.5962 39.9227 72.2969 40.2089 71.9976 40.4951C71.7359 40.7456 71.4553 40.9958 71.156 41.2463C71.0811 41.3894 70.9501 41.5146 70.7631 41.622C70.6135 41.6934 70.5012 41.8186 70.4265 41.9977C70.0149 42.1765 69.6782 42.4267 69.4163 42.7489C69.1543 43.0708 68.8364 43.3391 68.4624 43.5536L68.0695 44.0903C67.9572 44.1619 67.7888 44.2872 67.5645 44.466C67.3775 44.6091 67.1716 44.7879 66.9472 45.0024C66.76 45.1814 66.5916 45.3602 66.442 45.539C66.2923 45.7181 66.199 45.8609 66.1614 45.9683C66.0493 46.0043 65.8621 46.1114 65.6004 46.2904C65.3758 46.4693 65.1328 46.6659 64.8708 46.8807C64.6462 47.0952 64.4219 47.3099 64.1973 47.5245C64.0103 47.7392 63.898 47.8823 63.8606 47.9537L63.2994 48.3295C63.337 49.2952 63.3557 50.2789 63.3557 51.2806C63.393 52.2465 63.4117 53.2124 63.4117 54.1784V56.0026L63.0188 56.4857C62.8318 56.4857 62.6821 56.4498 62.5698 56.3783C62.4578 56.3069 62.3268 56.271 62.1771 56.271C62.0275 56.271 61.8778 56.3426 61.7282 56.4857C61.6159 56.6288 61.5036 56.7359 61.3916 56.8076C61.1296 56.8433 60.905 56.915 60.718 57.0221C60.5684 57.0938 60.4001 57.1654 60.2131 57.2369C59.9885 57.1295 59.7641 57.0759 59.5395 57.0759C59.0532 57.1833 58.8099 57.2012 58.8099 57.1295C58.8475 57.0581 58.7726 57.0221 58.5856 57.0221C58.2863 57.3083 58.0993 57.4516 58.0244 57.4516C57.8747 57.4516 57.7251 57.4695 57.5754 57.5052C57.4631 57.5409 57.3321 57.5588 57.1825 57.5588C57.0328 57.2726 56.9021 56.9864 56.7898 56.7002C56.7149 56.3783 56.5466 56.0743 56.2846 55.7881C56.3969 55.4303 56.3782 55.18 56.2286 55.0369C56.4532 54.6434 56.5466 54.1962 56.5092 53.6953C56.4719 53.1946 56.4532 52.7294 56.4532 52.3003C56.4532 52.0498 56.4532 51.8172 56.4532 51.6027C56.4905 51.3522 56.5092 51.1196 56.5092 50.9051C56.5092 50.4758 56.4719 50.0466 56.3969 49.6173C56.3222 49.1523 56.2846 48.6871 56.2846 48.2221C56.2846 47.149 56.3222 46.0757 56.3969 45.0024C56.4719 43.8936 56.5092 42.8024 56.5092 41.7294C56.5092 41.121 56.4719 40.4951 56.3969 39.8511C56.3596 39.2073 56.3409 38.5813 56.3409 37.973C56.3409 37.5797 56.3596 37.2218 56.3969 36.8999C56.4343 36.5421 56.4719 36.2023 56.5092 35.8804C56.5092 34.2348 56.5279 32.6608 56.5652 31.1584C56.6402 29.6201 56.6775 28.0997 56.6775 26.5973C56.6775 26.0964 56.6589 25.6314 56.6215 25.2021C56.6215 24.7371 56.6215 24.2543 56.6215 23.7533C56.6215 23.5029 56.6402 23.2524 56.6775 23.0022C56.7149 22.7517 56.7336 22.5013 56.7336 22.2509C56.8459 21.1419 56.9021 20.0329 56.9021 18.924L56.8459 18.0654C56.9955 17.8508 57.2201 17.7435 57.5194 17.7435C57.9307 17.7435 58.2489 17.8687 58.4733 18.1191C58.7352 18.0833 58.9783 18.0475 59.2029 18.0118C59.4648 17.9402 59.7078 17.9044 59.9324 17.9044C60.2691 17.9044 60.5497 18.0118 60.774 18.2264ZM64.0852 26.7583C64.0852 26.9371 64.0663 27.0802 64.029 27.1875C63.9916 27.259 63.9542 27.3306 63.9167 27.4023C63.9167 27.5094 63.9167 27.6347 63.9167 27.7778C63.9542 27.8851 63.9729 28.0104 63.9729 28.1535C63.9729 28.9761 63.9542 29.7989 63.9167 30.6217C63.9167 31.4089 63.9167 32.1958 63.9167 32.9827L63.8046 35.8266C63.8046 36.0057 63.8233 36.2023 63.8606 36.4169C63.898 36.6316 63.9167 36.8283 63.9167 37.0073C63.9167 37.1861 63.898 37.3649 63.8606 37.5437C63.8233 37.7228 63.8046 37.9016 63.8046 38.0804C63.8046 38.5454 63.8606 39.0106 63.9729 39.4756C64.1599 39.4039 64.2909 39.2968 64.3656 39.1537C64.4405 38.9747 64.5342 38.8316 64.6462 38.7244C65.5068 37.973 66.311 37.1861 67.0593 36.3633C67.8075 35.5405 68.5747 34.7178 69.3602 33.895C70.0335 33.2153 70.6135 32.6608 71.0998 32.2315C71.5863 31.8022 71.9603 31.2836 72.2222 30.6753C71.5863 30.282 70.9314 29.8884 70.2581 29.4949C69.5846 29.0656 68.8739 28.708 68.1257 28.4218C68.0881 28.3501 67.9761 28.2608 67.7888 28.1535C67.6392 28.0461 67.4709 27.9566 67.2839 27.8851C67.0969 27.7778 66.9096 27.6885 66.7226 27.6168C66.5356 27.5452 66.4046 27.5094 66.3299 27.5094C65.993 27.2233 65.6377 27.0444 65.2635 26.9728C65.0018 26.9728 64.7772 26.9371 64.5902 26.8656C64.4032 26.7583 64.2722 26.6687 64.1973 26.5973L64.0852 26.7583ZM91.9377 18.2264C92.0873 18.1906 92.2181 18.137 92.3304 18.0654C92.4427 17.9939 92.5736 17.9581 92.7233 17.9581C92.8356 17.9939 92.9103 18.0654 92.9476 18.1727C93.0226 18.2801 93.116 18.3695 93.2282 18.441C93.3405 18.3695 93.4342 18.2979 93.5089 18.2264C93.6212 18.1549 93.7335 18.1012 93.8455 18.0654C94.2198 18.1727 94.4254 18.3516 94.4628 18.602C94.65 18.6736 94.8184 18.763 94.968 18.8703C95.1176 18.9419 95.286 18.9955 95.473 19.0313C95.5479 19.1744 95.6413 19.2817 95.7536 19.3532C95.8659 19.4248 95.9968 19.5321 96.1465 19.6752C96.5205 19.7467 97.0068 19.9435 97.6054 20.2655C98.2416 20.5874 98.7465 20.8378 99.1208 21.0167C99.4948 21.1956 99.869 21.3744 100.243 21.5533C100.617 21.7322 100.973 21.9289 101.309 22.1436C101.646 22.3224 101.983 22.537 102.319 22.7874C102.656 23.0022 103.012 23.181 103.386 23.3241C103.722 23.7176 104.153 23.9681 104.676 24.0752C105.2 24.1826 105.668 24.3793 106.079 24.6655C106.416 24.8445 106.734 25.0412 107.033 25.2557C107.332 25.4347 107.632 25.6135 107.931 25.7923C108.043 25.9714 108.174 26.1142 108.324 26.2216C108.511 26.329 108.679 26.4721 108.829 26.6509C109.577 27.0444 110.007 27.3485 110.12 27.5632C110.232 27.6347 110.4 27.7421 110.625 27.8851C110.849 28.0282 111.074 28.1892 111.298 28.368C111.523 28.5111 111.729 28.672 111.916 28.8511C112.103 28.9942 112.215 29.1373 112.252 29.2803C112.103 29.6022 112.028 29.8706 112.028 30.0851C112.028 30.2641 111.953 30.4251 111.803 30.5682C112.028 30.8544 112.14 31.1227 112.14 31.3729C111.953 31.8022 111.635 32.16 111.186 32.4462C111.074 32.7324 110.887 32.9648 110.625 33.1438C110.4 33.2869 110.251 33.5015 110.176 33.7876C109.877 33.9664 109.69 34.1095 109.615 34.2169C109.577 34.3243 109.521 34.4317 109.446 34.5388C108.736 35.2543 108.062 35.8804 107.426 36.4169C106.828 36.9178 106.266 37.4723 105.743 38.0804C105.368 38.2592 105.05 38.4918 104.788 38.778C104.527 39.0285 104.284 39.3146 104.059 39.6365C103.76 39.9227 103.461 40.2089 103.161 40.4951C102.899 40.7456 102.619 40.9958 102.319 41.2463C102.244 41.3894 102.114 41.5146 101.927 41.622C101.777 41.6934 101.665 41.8186 101.59 41.9977C101.178 42.1765 100.842 42.4267 100.58 42.7489C100.318 43.0708 99.9997 43.3391 99.6257 43.5536L99.2328 44.0903C99.1208 44.1619 98.9522 44.2872 98.7279 44.466C98.5409 44.6091 98.335 44.7879 98.1106 45.0024C97.9236 45.1814 97.755 45.3602 97.6054 45.539C97.4557 45.7181 97.3624 45.8609 97.325 45.9683C97.2127 46.0043 97.0257 46.1114 96.7638 46.2904C96.5392 46.4693 96.2962 46.6659 96.0342 46.8807C95.8096 47.0952 95.5853 47.3099 95.3607 47.5245C95.1737 47.7392 95.0614 47.8823 95.024 47.9537L94.4628 48.3295C94.5004 49.2952 94.5191 50.2789 94.5191 51.2806C94.5564 52.2465 94.5751 53.2124 94.5751 54.1784V56.0026L94.1824 56.4857C93.9952 56.4857 93.8455 56.4498 93.7335 56.3783C93.6212 56.3069 93.4902 56.271 93.3405 56.271C93.1909 56.271 93.0413 56.3426 92.8916 56.4857C92.7793 56.6288 92.667 56.7359 92.555 56.8076C92.293 56.8433 92.0684 56.915 91.8814 57.0221C91.7318 57.0938 91.5634 57.1654 91.3764 57.2369C91.1519 57.1295 90.9275 57.0759 90.7029 57.0759C90.2166 57.1833 89.9734 57.2012 89.9734 57.1295C90.0109 57.0581 89.936 57.0221 89.749 57.0221C89.4497 57.3083 89.2627 57.4516 89.1878 57.4516C89.0381 57.4516 88.8885 57.4695 88.7388 57.5052C88.6265 57.5409 88.4958 57.5588 88.3461 57.5588C88.1965 57.2726 88.0655 56.9864 87.9532 56.7002C87.8783 56.3783 87.7099 56.0743 87.4482 55.7881C87.5603 55.4303 87.5416 55.18 87.392 55.0369C87.6166 54.6434 87.7099 54.1962 87.6726 53.6953C87.6352 53.1946 87.6166 52.7294 87.6166 52.3003C87.6166 52.0498 87.6166 51.8172 87.6166 51.6027C87.6539 51.3522 87.6726 51.1196 87.6726 50.9051C87.6726 50.4758 87.6353 50.0466 87.5603 49.6173C87.4856 49.1523 87.4482 48.6871 87.4482 48.2221C87.4482 47.149 87.4856 46.0757 87.5603 45.0024C87.6353 43.8936 87.6726 42.8024 87.6726 41.7294C87.6726 41.121 87.6353 40.4951 87.5603 39.8511C87.523 39.2073 87.5043 38.5813 87.5043 37.973C87.5043 37.5797 87.523 37.2218 87.5603 36.8999C87.5979 36.5421 87.6352 36.2023 87.6726 35.8804C87.6726 34.2348 87.6913 32.6608 87.7286 31.1584C87.8036 29.6201 87.8409 28.0997 87.8409 26.5973C87.8409 26.0964 87.8223 25.6314 87.7849 25.2021C87.7849 24.7371 87.7849 24.2543 87.7849 23.7533C87.7849 23.5029 87.8036 23.2524 87.8409 23.0022C87.8783 22.7517 87.8972 22.5013 87.8972 22.2509C88.0092 21.1419 88.0655 20.0329 88.0655 18.924L88.0092 18.0654C88.1589 17.8508 88.3835 17.7435 88.6828 17.7435C89.0944 17.7435 89.4124 17.8687 89.6367 18.1191C89.8986 18.0833 90.1419 18.0475 90.3663 18.0118C90.6282 17.9402 90.8712 17.9044 91.0958 17.9044C91.4325 17.9044 91.7131 18.0118 91.9377 18.2264ZM95.2486 26.7583C95.2486 26.9371 95.2299 27.0802 95.1924 27.1875C95.155 27.259 95.1176 27.3306 95.0803 27.4023C95.0803 27.5094 95.0803 27.6347 95.0803 27.7778C95.1176 27.8851 95.1363 28.0104 95.1363 28.1535C95.1363 28.9761 95.1176 29.7989 95.0803 30.6217C95.0803 31.4089 95.0803 32.1958 95.0803 32.9827L94.968 35.8266C94.968 36.0057 94.9867 36.2023 95.024 36.4169C95.0614 36.6316 95.0803 36.8283 95.0803 37.0073C95.0803 37.1861 95.0614 37.3649 95.024 37.5437C94.9867 37.7228 94.968 37.9016 94.968 38.0804C94.968 38.5454 95.024 39.0106 95.1363 39.4756C95.3233 39.4039 95.4543 39.2968 95.5292 39.1537C95.6039 38.9747 95.6976 38.8316 95.8096 38.7244C96.6702 37.973 97.4747 37.1861 98.2229 36.3633C98.9711 35.5405 99.7381 34.7178 100.524 33.895C101.197 33.2153 101.777 32.6608 102.263 32.2315C102.75 31.8022 103.124 31.2836 103.386 30.6753C102.75 30.282 102.095 29.8884 101.422 29.4949C100.748 29.0656 100.037 28.708 99.2891 28.4218C99.2515 28.3501 99.1395 28.2608 98.9522 28.1535C98.8026 28.0461 98.6343 27.9566 98.4473 27.8851C98.2603 27.7778 98.0732 27.6885 97.886 27.6168C97.699 27.5452 97.568 27.5094 97.4933 27.5094C97.1564 27.2233 96.8011 27.0444 96.4271 26.9728C96.1652 26.9728 95.9406 26.9371 95.7536 26.8656C95.5666 26.7583 95.4356 26.6687 95.3607 26.5973L95.2486 26.7583ZM126.805 43.1781C126.88 43.3569 127.142 43.7326 127.591 44.305C128.077 44.8774 128.619 45.5033 129.218 46.1831C129.817 46.8628 130.378 47.5245 130.901 48.1685C131.463 48.7766 131.855 49.2237 132.08 49.5099C132.491 50.0108 132.884 50.5115 133.258 51.0123C133.67 51.4775 134.044 51.9782 134.381 52.5148L135.391 54.1246C135.69 54.4824 135.952 54.7865 136.176 55.0369C136.438 55.2872 136.644 55.6271 136.794 56.0564C136.869 56.3426 136.906 56.5393 136.906 56.6467C136.906 56.8971 136.812 57.0759 136.625 57.1833C136.326 57.1833 136.158 57.219 136.12 57.2905C136.12 57.3978 136.046 57.4873 135.896 57.5588C135.746 57.6304 135.503 57.6662 135.166 57.6662C134.867 57.7019 134.624 57.7197 134.437 57.7197C134.1 57.7197 133.67 57.7019 133.146 57.6662C132.66 57.6662 132.267 57.7197 131.968 57.8271C131.893 57.8628 131.781 57.9166 131.631 57.9881C131.481 58.0597 131.369 58.0954 131.294 58.0954C130.995 58.0954 130.77 58.0419 130.621 57.9345C130.509 57.8628 130.34 57.8092 130.116 57.7735C129.817 57.4516 129.555 57.1295 129.33 56.8076C129.143 56.4498 128.919 56.0921 128.657 55.7345C128.395 55.4841 128.133 55.2693 127.871 55.0905C127.609 54.876 127.385 54.6434 127.198 54.3929C126.636 53.606 126.056 52.8367 125.458 52.0856C124.859 51.3344 124.242 50.6011 123.606 49.8856C123.307 49.4921 122.989 49.1342 122.652 48.8123C122.315 48.4904 121.997 48.1326 121.698 47.7392C121.399 47.3814 121.118 47.0057 120.856 46.6123C120.594 46.1831 120.332 45.7717 120.071 45.3781C119.846 45.0562 119.547 44.6448 119.173 44.1438C118.799 43.6074 118.387 43.0886 117.938 42.5879C117.489 42.0513 117.04 41.5503 116.591 41.0853C116.142 40.6203 115.768 40.2625 115.469 40.0123C115.431 39.7975 115.338 39.6366 115.188 39.5292C115.039 39.3861 114.87 39.2609 114.683 39.1537C114.609 38.9747 114.534 38.8137 114.459 38.6706C114.347 38.4918 114.291 38.313 114.291 38.134C114.291 37.8837 114.347 37.6511 114.459 37.4366C114.534 37.2935 114.59 37.1683 114.627 37.0609C114.627 36.9178 114.665 36.7747 114.739 36.6316C114.926 36.2381 115.17 35.8626 115.469 35.5047C115.806 35.1112 116.068 34.6998 116.255 34.2707C116.329 34.1633 116.367 34.056 116.367 33.9486C116.367 33.8055 116.404 33.6803 116.479 33.5731C116.554 33.2869 116.704 33.0543 116.928 32.8755C117.19 32.6608 117.396 32.4284 117.545 32.1779C117.732 31.8917 117.901 31.6055 118.05 31.3194C118.237 30.9975 118.424 30.6575 118.612 30.2998C119.173 29.4056 119.753 28.547 120.351 27.7242C120.987 26.8656 121.623 26.0071 122.259 25.1485C122.746 24.4331 123.213 23.7533 123.662 23.1095C124.149 22.4297 124.635 21.75 125.121 21.0703C125.383 20.7484 125.664 20.3728 125.963 19.9435C126.262 19.5142 126.58 19.085 126.917 18.6557C127.291 18.2264 127.665 17.8329 128.039 17.4752C128.413 17.1174 128.788 16.8312 129.162 16.6166C129.723 16.5808 130.097 16.706 130.284 16.9922C130.471 17.2426 130.752 17.3678 131.126 17.3678C131.612 17.4752 131.93 17.6182 132.08 17.7971C132.23 17.976 132.398 18.1549 132.585 18.3337C133.109 18.3337 133.52 18.4232 133.819 18.602C134.156 18.7809 134.474 19.0492 134.774 19.4069C134.661 19.8004 134.493 20.1581 134.268 20.4801C134.044 20.7663 133.838 21.0703 133.651 21.3923C133.352 21.5354 133.127 21.7322 132.978 21.9826C132.866 22.233 132.679 22.4297 132.417 22.5728C132.042 23.181 131.65 23.7712 131.238 24.3436C130.827 24.8802 130.415 25.4169 130.004 25.9533C129.779 26.2754 129.536 26.5616 129.274 26.8118C129.049 27.0623 128.844 27.3306 128.657 27.6168C128.582 27.7242 128.507 27.8494 128.432 27.9925C128.395 28.0997 128.339 28.207 128.264 28.3144C127.815 28.9942 127.329 29.638 126.805 30.246C126.281 30.8184 125.795 31.4624 125.346 32.1779C125.196 32.4284 125.065 32.6965 124.953 32.9827C124.878 33.2331 124.766 33.4836 124.616 33.7341C124.467 33.9486 124.242 34.2348 123.943 34.5926C123.681 34.9502 123.419 35.3438 123.157 35.7731C122.895 36.1666 122.652 36.5602 122.428 36.9535C122.241 37.3114 122.147 37.6154 122.147 37.8659C122.185 38.0447 122.409 38.4023 122.82 38.9389C123.269 39.4399 123.756 39.9944 124.28 40.6025C124.841 41.1748 125.364 41.7294 125.851 42.2658C126.337 42.7667 126.655 43.0708 126.805 43.1781ZM130.509 33.4122C130.77 33.9486 131.051 34.4136 131.35 34.8071C131.463 34.9502 131.593 35.0755 131.743 35.1828C131.893 35.2902 132.005 35.4333 132.08 35.6121C132.155 35.6835 132.23 35.8445 132.304 36.095C132.379 36.3097 132.454 36.4707 132.529 36.578C132.641 36.8642 132.866 37.1861 133.202 37.5437C133.539 37.9016 133.707 38.2235 133.707 38.5097C133.707 38.6885 133.67 38.8854 133.595 39.0999C133.52 39.3147 133.464 39.5113 133.427 39.6901C133.389 39.9049 133.371 40.1373 133.371 40.3877C133.371 40.6025 133.296 40.7991 133.146 40.978C132.959 41.157 132.753 41.2641 132.529 41.3001C132.304 41.3358 132.099 41.4253 131.912 41.5682C131.837 41.6398 131.724 41.7651 131.575 41.9439C131.425 42.1227 131.275 42.3196 131.126 42.5341C130.976 42.7489 130.827 42.9634 130.677 43.1781C130.565 43.3569 130.509 43.5 130.509 43.6074C130.06 43.6431 129.76 43.661 129.611 43.661C129.498 43.6253 129.368 43.6253 129.218 43.661C129.031 43.4822 128.825 43.3391 128.6 43.2317C128.413 43.0886 128.17 42.9634 127.871 42.8562C127.796 42.5701 127.628 42.2479 127.366 41.8903C127.104 41.4967 126.88 41.1748 126.693 40.9244L126.3 40.4415C125.738 39.6901 125.215 38.9747 124.729 38.2951C124.28 37.5797 123.943 36.7926 123.718 35.934C124.429 35.4333 124.972 35.0576 125.346 34.8071C125.757 34.5569 126.187 34.3243 126.636 34.1095C127.085 33.895 127.516 33.6983 127.927 33.5193C128.376 33.3048 128.788 33.0543 129.162 32.7681C129.461 32.7681 129.667 32.786 129.779 32.8217C129.891 32.8577 129.966 32.8934 130.004 32.9291C130.041 32.9648 130.078 33.0365 130.116 33.1438C130.191 33.2153 130.322 33.3048 130.509 33.4122ZM168.462 52.0856C168.425 52.6222 168.537 53.0336 168.799 53.3198C169.098 53.5701 169.342 53.8922 169.529 54.2855C169.454 54.7865 169.51 55.18 169.697 55.4662C169.585 55.6807 169.472 55.9312 169.36 56.2174C169.248 56.4678 169.08 56.6824 168.855 56.8612C168.256 57.1116 167.901 57.3264 167.789 57.5052C167.677 57.684 167.452 57.7735 167.116 57.7735C166.928 57.9523 166.723 58.1311 166.498 58.3102C166.274 58.5247 166.068 58.7214 165.881 58.9004C165.694 58.8288 165.563 58.7392 165.488 58.6321C165.413 58.5247 165.301 58.3816 165.151 58.2028C164.777 58.0954 164.441 57.8988 164.141 57.6126C163.842 57.3621 163.58 57.0759 163.356 56.754C163.131 56.3962 162.907 56.0386 162.682 55.6807C162.495 55.2872 162.327 54.9296 162.177 54.6077C161.653 53.6774 161.111 52.7474 160.55 51.8172C160.026 50.8513 159.483 49.9035 158.922 48.9733C158.623 48.5083 158.324 48.0433 158.024 47.578C157.762 47.0773 157.482 46.5766 157.182 46.0757C157.108 46.0043 157.033 45.9326 156.958 45.8609C156.883 45.7538 156.808 45.6464 156.734 45.539C156.472 45.1814 156.266 44.7879 156.116 44.3586C156.004 43.8936 155.742 43.5179 155.331 43.2317C154.62 43.1603 153.965 43.2674 153.367 43.5536C152.805 43.8041 152.3 44.1438 151.851 44.5733C151.889 44.8236 151.907 45.0562 151.907 45.2707C151.907 45.4855 151.907 45.7 151.907 45.9147C151.907 46.7376 151.87 47.5245 151.795 48.2756C151.72 49.0271 151.683 49.8139 151.683 50.6368C151.683 50.9944 151.702 51.3701 151.739 51.7637C151.777 52.1213 151.833 52.4791 151.907 52.8367C151.795 53.2303 151.739 53.6596 151.739 54.1246C151.739 54.375 151.758 54.6076 151.795 54.8222C151.87 55.0369 151.907 55.2693 151.907 55.5198C151.907 55.8774 151.776 56.1279 151.515 56.271C151.29 56.3783 151.215 56.5931 151.29 56.915C150.841 57.0938 150.411 57.2726 149.999 57.4516C149.588 57.6304 149.158 57.7557 148.709 57.8271C148.522 57.8628 148.335 57.8628 148.148 57.8271C147.961 57.8271 147.792 57.8628 147.643 57.9345C147.455 58.0059 147.306 58.1311 147.194 58.3102C147.081 58.5247 146.932 58.6321 146.745 58.6321C146.52 58.6321 146.389 58.5426 146.352 58.3638C146.314 58.2207 146.24 58.0954 146.127 57.9881C145.94 57.9166 145.791 57.8807 145.678 57.8807C145.566 57.8807 145.454 57.8271 145.342 57.7197C145.379 57.3978 145.304 57.1654 145.117 57.0221C144.93 56.8433 144.837 56.5036 144.837 56.0026C144.837 55.6093 144.855 55.2336 144.893 54.876C144.968 54.5181 145.005 54.1424 145.005 53.7491C145.005 53.427 144.949 53.1408 144.837 52.8905C144.762 52.6044 144.687 52.3003 144.612 51.9782C144.575 51.8351 144.575 51.692 144.612 51.5489C144.65 51.4058 144.668 51.2627 144.668 51.1196C144.668 50.4758 144.631 49.8318 144.556 49.188C144.519 48.5083 144.5 47.8464 144.5 47.2026C144.5 46.9521 144.5 46.7195 144.5 46.505C144.5 46.2904 144.519 46.0757 144.556 45.8609C144.631 45.6464 144.687 45.4676 144.724 45.3245C144.799 45.1814 144.837 45.0024 144.837 44.7879C144.837 44.1081 144.762 43.4465 144.612 42.8024C144.462 42.1227 144.388 41.461 144.388 40.817C144.388 40.4594 144.388 40.1015 144.388 39.7439C144.425 39.3504 144.444 38.9747 144.444 38.6171C144.444 37.5797 144.425 36.5602 144.388 35.5583C144.35 34.5569 144.331 33.555 144.331 32.5536C144.331 31.8379 144.35 31.1405 144.388 30.4608C144.425 29.7453 144.444 29.0299 144.444 28.3144C144.444 27.4201 144.406 26.5437 144.331 25.6852C144.257 24.7907 144.219 23.8786 144.219 22.9483C144.219 22.6265 144.201 22.4118 144.163 22.3045C144.126 22.1972 144.07 22.1436 143.995 22.1436C143.92 22.1078 143.826 22.0899 143.714 22.0899C143.639 22.0541 143.565 21.9826 143.49 21.8753C143.49 21.6606 143.583 21.5175 143.77 21.446C143.957 21.3386 144.051 21.0346 144.051 20.5338C144.051 20.2476 144.013 19.9614 143.939 19.6752C143.901 19.389 143.883 19.1028 143.883 18.8167C143.883 18.3874 143.976 17.9581 144.163 17.5288C144.35 17.0995 144.519 16.6882 144.668 16.2947C145.117 16.2589 145.417 16.2589 145.566 16.2947C145.753 16.3304 145.94 16.3125 146.127 16.241C146.24 16.6345 146.483 16.8491 146.857 16.8849C147.231 16.8849 147.568 16.9207 147.867 16.9922C148.204 17.028 148.522 17.1174 148.821 17.2605C149.158 17.3678 149.476 17.4215 149.775 17.4215C149.85 17.6361 149.999 17.7971 150.224 17.9044C150.486 17.976 150.748 18.0475 151.01 18.1191C151.309 18.0833 151.533 17.9581 151.683 17.7435C151.87 17.5288 152.113 17.4215 152.412 17.4215C152.637 17.4215 152.899 17.5825 153.198 17.9044C153.498 18.1906 153.722 18.4232 153.872 18.602C154.021 18.7093 154.302 18.9419 154.713 19.2996C155.125 19.6573 155.574 20.0329 156.06 20.4264C156.547 20.7842 156.995 21.1419 157.407 21.4996C157.819 21.8216 158.08 22.0005 158.193 22.0362C159.727 23.5029 161.148 24.8445 162.458 26.0607C163.805 27.2411 165.263 28.3144 166.835 29.2803C166.872 29.3875 166.91 29.477 166.947 29.5484C167.022 29.6201 167.097 29.7096 167.172 29.8168C167.172 30.103 167.116 30.3177 167.003 30.4608C166.891 30.6039 166.835 30.7827 166.835 30.9975C166.835 31.1046 166.854 31.212 166.891 31.3194C166.966 31.4267 167.003 31.5339 167.003 31.6413C167.041 31.7843 167.041 31.9274 167.003 32.0705C167.003 32.1779 167.003 32.3031 167.003 32.4462C167.003 32.8038 167.116 33.126 167.34 33.4122C167.602 33.6983 167.733 34.0202 167.733 34.3779C167.658 34.6998 167.508 34.8967 167.284 34.9681C167.059 35.0397 166.872 35.1293 166.723 35.2364C166.648 35.3081 166.573 35.3974 166.498 35.5047C166.461 35.6121 166.405 35.7016 166.33 35.7731C165.507 36.1307 164.908 36.4707 164.534 36.7926C164.16 37.0787 163.767 37.3649 163.356 37.6511C163.243 37.7228 163.056 37.8478 162.794 38.0268C162.532 38.1699 162.271 38.3309 162.009 38.5097C161.747 38.6528 161.504 38.8137 161.279 38.9925C161.092 39.1716 160.999 39.3146 160.999 39.422C160.999 39.6723 161.148 40.0301 161.448 40.4951C161.784 40.9244 162.027 41.2641 162.177 41.5146C162.589 42.1586 162.963 42.8024 163.299 43.4465C163.636 44.0546 164.01 44.6626 164.422 45.2707C165.17 46.3797 165.862 47.5066 166.498 48.6514C167.172 49.7961 167.826 50.9408 168.462 52.0856ZM159.315 32.1241C158.455 31.0867 157.519 30.1568 156.509 29.3339C155.536 28.4754 154.601 27.5811 153.703 26.6509L153.086 26.5437C152.861 26.1859 152.6 25.8819 152.3 25.6314C152.038 25.3452 151.758 25.059 151.459 24.7728C151.496 25.1664 151.515 25.5419 151.515 25.8997C151.515 26.2576 151.515 26.633 151.515 27.0266C151.515 28.1713 151.477 29.2982 151.402 30.407C151.365 31.4803 151.346 32.5715 151.346 33.6803C151.346 34.7893 151.402 35.8445 151.515 36.8464C152.3 36.8464 153.011 36.6316 153.647 36.2023C153.909 36.0235 154.152 35.8445 154.377 35.6657C154.601 35.4512 154.844 35.2543 155.106 35.0755C155.405 34.8967 155.742 34.6819 156.116 34.4317C156.528 34.1812 156.921 33.9307 157.295 33.6803C157.706 33.43 158.08 33.1796 158.417 32.9291C158.791 32.6429 159.091 32.3746 159.315 32.1241Z" fill="#333333"/>
<path d="M3.55646 82.5352C2.63051 82.5352 1.87761 82.2044 1.29772 81.5425C0.72251 80.8806 0.434906 80.0111 0.434906 78.9334C0.434906 77.8512 0.720171 76.9814 1.2907 76.3241C1.86591 75.6624 2.61416 75.3314 3.53542 75.3314C4.11064 75.3314 4.62038 75.4745 5.06463 75.7606C5.51357 76.0425 5.83626 76.4159 6.03267 76.8809H6.05371V72.7424H6.98668V82.4212H6.10282V80.9456H6.08178C5.87134 81.4241 5.54163 81.8085 5.09269 82.0993C4.64374 82.3898 4.13169 82.5352 3.55646 82.5352ZM3.7178 76.1162C3.01634 76.1162 2.4528 76.3733 2.02725 76.8875C1.60169 77.4017 1.38891 78.0838 1.38891 78.9334C1.38891 79.783 1.60169 80.4648 2.02725 80.979C2.4528 81.4932 3.01634 81.7504 3.7178 81.7504C4.4146 81.7504 4.97812 81.4912 5.40836 80.9724C5.84327 80.4536 6.06073 79.7741 6.06073 78.9334C6.06073 78.0927 5.84327 77.413 5.40836 76.8942C4.97812 76.3756 4.4146 76.1162 3.7178 76.1162ZM14.6095 82.4212V75.4454H15.5354V82.4212H14.6095ZM15.0724 74.0369C14.9041 74.0369 14.7591 73.981 14.6375 73.8691C14.5159 73.753 14.4551 73.612 14.4551 73.4467C14.4551 73.2857 14.5159 73.1493 14.6375 73.0375C14.7591 72.9212 14.9041 72.8631 15.0724 72.8631C15.2455 72.8631 15.3928 72.9212 15.5144 73.0375C15.6359 73.1493 15.6967 73.2857 15.6967 73.4467C15.6967 73.612 15.6359 73.753 15.5144 73.8691C15.3928 73.981 15.2455 74.0369 15.0724 74.0369ZM25.9712 81.7034C26.6725 81.7034 27.2385 81.4486 27.6686 80.9387C28.1036 80.4245 28.321 79.7494 28.321 78.9132C28.321 78.0769 28.1036 77.4017 27.6686 76.8875C27.2385 76.3733 26.6725 76.1162 25.9712 76.1162C25.2835 76.1162 24.7295 76.3733 24.3086 76.8875C23.8877 77.3974 23.6773 78.0748 23.6773 78.9199C23.6773 79.7606 23.8877 80.4357 24.3086 80.9456C24.7295 81.4509 25.2835 81.7034 25.9712 81.7034ZM26.0622 85.0035C25.2766 85.0035 24.6055 84.8203 24.049 84.4535C23.4972 84.0868 23.1699 83.6241 23.067 83.065H24.0279C24.1496 83.4139 24.3952 83.6955 24.7647 83.9102C25.1387 84.1293 25.5852 84.2388 26.1043 84.2388C26.7824 84.2388 27.3202 84.0646 27.7179 83.7156C28.1199 83.3713 28.321 82.913 28.321 82.3406V80.9387H28.3C28.0988 81.3994 27.7739 81.7728 27.325 82.059C26.8806 82.3452 26.3732 82.4883 25.8026 82.4883C24.8767 82.4883 24.1309 82.1618 23.5651 81.5091C23.0039 80.8561 22.7233 79.9909 22.7233 78.9132C22.7233 77.831 23.0062 76.9635 23.572 76.3108C24.1378 75.6578 24.8885 75.3314 25.8237 75.3314C26.3943 75.3314 26.9017 75.4767 27.346 75.7675C27.795 76.0537 28.1292 76.4381 28.349 76.9212H28.3701V75.4454H29.2541V82.3072C29.2541 83.1211 28.9642 83.7738 28.3842 84.2658C27.8089 84.7576 27.035 85.0035 26.0622 85.0035ZM36.8136 82.4212V75.4454H37.7395V82.4212H36.8136ZM37.2767 74.0369C37.1084 74.0369 36.9633 73.981 36.8416 73.8691C36.7202 73.753 36.6594 73.612 36.6594 73.4467C36.6594 73.2857 36.7202 73.1493 36.8416 73.0375C36.9633 72.9212 37.1084 72.8631 37.2767 72.8631C37.4496 72.8631 37.597 72.9212 37.7184 73.0375C37.8401 73.1493 37.9009 73.2857 37.9009 73.4467C37.9009 73.612 37.8401 73.753 37.7184 73.8691C37.597 73.981 37.4496 74.0369 37.2767 74.0369ZM45.6922 73.7015H46.6181V75.4454H48.0561V76.1833H46.6181V80.6638C46.6181 81.0216 46.6952 81.2831 46.8496 81.4486C47.0038 81.6096 47.2495 81.6901 47.5861 81.6901C47.8481 81.6901 48.0164 81.6812 48.0911 81.6631V82.4212C47.9601 82.448 47.731 82.4615 47.4037 82.4615C46.7909 82.4615 46.3516 82.3273 46.0848 82.059C45.8231 81.7863 45.6922 81.3346 45.6922 80.7041V76.1833H44.6049V75.4454H45.6922V73.7015ZM57.4044 81.7705C58.0452 81.7705 58.5853 81.5805 59.025 81.2004C59.4646 80.8204 59.6844 80.3531 59.6844 79.7986V79.0273L57.5237 79.1681C56.9486 79.2038 56.5066 79.3379 56.1979 79.5706C55.8893 79.7986 55.7349 80.1049 55.7349 80.4893C55.7349 80.8696 55.8893 81.178 56.1979 81.415C56.5066 81.6521 56.9088 81.7705 57.4044 81.7705ZM57.215 82.5352C56.4948 82.5352 55.9104 82.3475 55.4614 81.9718C55.017 81.5917 54.7951 81.0976 54.7951 80.4893C54.7951 79.8902 55.0194 79.4162 55.4684 79.0676C55.9221 78.7186 56.5698 78.5174 57.4114 78.4638L59.6844 78.3297V77.7259C59.6844 77.2206 59.5251 76.8271 59.2072 76.5455C58.8892 76.2593 58.4474 76.1162 57.8814 76.1162C57.3484 76.1162 56.9134 76.2348 56.5767 76.4718C56.2446 76.7087 56.0389 77.0395 55.9594 77.4645H55.0616C55.113 76.8294 55.3937 76.3152 55.9034 75.9216C56.4177 75.5283 57.0841 75.3314 57.9025 75.3314C58.735 75.3314 59.3944 75.5393 59.8807 75.9553C60.367 76.371 60.6103 76.9345 60.6103 77.6456V82.4212H59.7263V81.0931H59.7052C59.5043 81.5269 59.1746 81.8756 58.7163 82.1396C58.2578 82.4033 57.7576 82.5352 57.215 82.5352ZM68.1207 82.4212V72.7424H69.0466V82.4212H68.1207ZM90.0023 78.9265H85.4006V78.095H90.0023V78.9265ZM99.8065 81.7705C100.447 81.7705 100.987 81.5805 101.427 81.2004C101.867 80.8204 102.086 80.3531 102.086 79.7986V79.0273L99.9258 79.1681C99.3506 79.2038 98.9086 79.3379 98.6 79.5706C98.2914 79.7986 98.1372 80.1049 98.1372 80.4893C98.1372 80.8696 98.2914 81.178 98.6 81.415C98.9086 81.6521 99.3109 81.7705 99.8065 81.7705ZM99.6171 82.5352C98.8971 82.5352 98.3124 82.3475 97.8635 81.9718C97.4193 81.5917 97.1971 81.0976 97.1971 80.4893C97.1971 79.8902 97.4217 79.4162 97.8707 79.0676C98.3242 78.7186 98.9718 78.5174 99.8137 78.4638L102.086 78.3297V77.7259C102.086 77.2206 101.927 76.8271 101.609 76.5455C101.292 76.2593 100.85 76.1162 100.284 76.1162C99.7505 76.1162 99.3157 76.2348 98.9788 76.4718C98.6469 76.7087 98.441 77.0395 98.3615 77.4645H97.4636C97.5151 76.8294 97.7957 76.3152 98.3055 75.9216C98.8198 75.5283 99.4864 75.3314 100.305 75.3314C101.137 75.3314 101.796 75.5393 102.283 75.9553C102.769 76.371 103.012 76.9345 103.012 77.6456V82.4212H102.129V81.0931H102.108C101.906 81.5269 101.577 81.8756 101.118 82.1396C100.66 82.4033 100.16 82.5352 99.6171 82.5352ZM113.343 81.7034C114.044 81.7034 114.61 81.4486 115.04 80.9387C115.475 80.4245 115.693 79.7494 115.693 78.9132C115.693 78.0769 115.475 77.4017 115.04 76.8875C114.61 76.3733 114.044 76.1162 113.343 76.1162C112.655 76.1162 112.101 76.3733 111.68 76.8875C111.259 77.3974 111.049 78.0748 111.049 78.9199C111.049 79.7606 111.259 80.4357 111.68 80.9456C112.101 81.4509 112.655 81.7034 113.343 81.7034ZM113.434 85.0035C112.648 85.0035 111.977 84.8203 111.421 84.4535C110.869 84.0868 110.542 83.6241 110.439 83.065H111.4C111.521 83.4139 111.767 83.6955 112.136 83.9102C112.51 84.1293 112.957 84.2388 113.476 84.2388C114.154 84.2388 114.692 84.0646 115.09 83.7156C115.492 83.3713 115.693 82.913 115.693 82.3406V80.9387H115.672C115.471 81.3994 115.146 81.7728 114.697 82.059C114.252 82.3452 113.745 82.4883 113.174 82.4883C112.249 82.4883 111.503 82.1618 110.937 81.5091C110.375 80.8561 110.095 79.9909 110.095 78.9132C110.095 77.831 110.378 76.9635 110.944 76.3108C111.51 75.6578 112.26 75.3314 113.196 75.3314C113.766 75.3314 114.274 75.4767 114.718 75.7675C115.167 76.0537 115.501 76.4381 115.721 76.9212H115.742V75.4454H116.626V82.3072C116.626 83.1211 116.336 83.7738 115.756 84.2658C115.181 84.7576 114.407 85.0035 113.434 85.0035ZM127.005 76.1096C126.355 76.1096 125.82 76.3264 125.399 76.76C124.983 77.1893 124.756 77.7507 124.718 78.4437H129.222C129.213 77.7507 129.005 77.1893 128.598 76.76C128.191 76.3264 127.66 76.1096 127.005 76.1096ZM129.166 80.4424H130.085C129.973 81.055 129.641 81.558 129.089 81.9516C128.542 82.3406 127.87 82.5352 127.075 82.5352C126.051 82.5352 125.242 82.2156 124.648 81.5761C124.054 80.9321 123.758 80.058 123.758 78.9535C123.758 77.8667 124.054 76.9926 124.648 76.3307C125.242 75.6645 126.032 75.3314 127.019 75.3314C127.983 75.3314 128.75 75.6443 129.32 76.2705C129.891 76.8965 130.176 77.7305 130.176 78.7722V79.1479H124.712V79.2017C124.712 79.9886 124.927 80.6125 125.357 81.0729C125.787 81.5292 126.367 81.7572 127.097 81.7572C127.634 81.7572 128.088 81.6363 128.457 81.395C128.827 81.1535 129.063 80.8359 129.166 80.4424ZM137.308 82.4212V75.4454H138.185V76.7332H138.206C138.397 76.2996 138.701 75.9575 139.117 75.7071C139.538 75.4566 140.036 75.3314 140.612 75.3314C141.411 75.3314 142.04 75.5617 142.499 76.0223C142.962 76.4827 143.193 77.1089 143.193 77.9004V82.4212H142.267V78.0412C142.267 77.4331 142.099 76.9612 141.762 76.6261C141.43 76.2907 140.958 76.1228 140.345 76.1228C139.714 76.1228 139.204 76.3218 138.816 76.7199C138.428 77.1178 138.234 77.641 138.234 78.2894V82.4212H137.308ZM156.582 77.6522H155.67C155.567 77.2005 155.331 76.8317 154.962 76.5455C154.597 76.2593 154.139 76.1162 153.587 76.1162C152.871 76.1162 152.298 76.371 151.868 76.8809C151.442 77.3905 151.23 78.0748 151.23 78.9334C151.23 79.8009 151.445 80.4873 151.875 80.9925C152.305 81.4978 152.878 81.7504 153.594 81.7504C154.136 81.7504 154.59 81.6162 154.955 81.3479C155.324 81.0798 155.562 80.7176 155.67 80.2613H156.589C156.486 80.9321 156.159 81.48 155.607 81.9047C155.06 82.325 154.386 82.5352 153.587 82.5352C152.586 82.5352 151.784 82.2133 151.181 81.5693C150.582 80.9209 150.283 80.0422 150.283 78.9334C150.283 77.8377 150.582 76.9635 151.181 76.3108C151.784 75.6578 152.584 75.3314 153.58 75.3314C154.407 75.3314 155.09 75.5551 155.628 76.0022C156.17 76.4493 156.489 76.9992 156.582 77.6522ZM164.156 84.9433C163.987 84.9433 163.833 84.9298 163.693 84.903V84.1449C163.805 84.1717 163.952 84.1852 164.135 84.1852C164.467 84.1852 164.733 84.0957 164.934 83.9169C165.14 83.7381 165.325 83.4295 165.489 82.9913L165.685 82.4681L162.949 75.4454H163.945L166.162 81.5358H166.183L168.407 75.4454H169.382L166.513 82.8438C166.195 83.6621 165.872 84.2166 165.545 84.5071C165.217 84.7979 164.754 84.9433 164.156 84.9433Z" fill="#EB5757"/>
<path d="M47.0074 21.4997C47.2318 21.3208 47.3441 21.0704 47.3441 20.7485C47.3441 20.4623 47.1195 20.1761 46.6705 19.8899C46.2216 19.6037 45.8663 19.3712 45.6043 19.1923C45.38 19.085 45.174 18.924 44.987 18.7094C44.8374 18.459 44.6691 18.2265 44.4821 18.0118C44.3324 17.7614 44.1452 17.5468 43.9208 17.3679C43.7338 17.189 43.4906 17.0996 43.1913 17.0996C42.892 17.0996 42.6676 17.189 42.518 17.3679C42.3683 17.5468 42.1437 17.6541 41.8444 17.6899C41.2085 18.1907 40.5912 18.7273 39.9926 19.2997C39.4314 19.872 38.8328 20.4265 38.1969 20.9631C37.86 21.2851 37.5607 21.607 37.299 21.929C37.037 22.2151 36.7191 22.5908 36.3448 23.0558C36.2701 23.1632 36.1765 23.2346 36.0642 23.2705C35.9521 23.3063 35.8959 23.3958 35.8959 23.5386C36.1205 23.8608 36.3261 24.1827 36.5131 24.5046C36.7004 24.7908 37.1306 25.0055 37.8039 25.1486C37.9909 25.3274 38.1782 25.4348 38.3652 25.4705C38.5895 25.4705 38.8328 25.4884 39.0947 25.5241C39.4314 25.5957 39.8243 25.7388 40.2733 25.9533C40.7595 26.1324 41.1522 26.2217 41.4515 26.2217C41.6388 26.2217 41.8631 26.1324 42.1251 25.9533C42.4243 25.7745 42.705 25.5779 42.9669 25.3631C43.2662 25.1129 43.5466 24.8803 43.8085 24.6655C44.0705 24.4153 44.2762 24.2184 44.4258 24.0753C44.8 23.7534 45.118 23.4315 45.38 23.1096C45.6793 22.7517 46.0159 22.4119 46.3899 22.09C46.5771 21.8395 46.7828 21.6428 47.0074 21.4997Z" fill="#EB5757"/>
</svg>
