<svg width="37" height="751" viewBox="0 0 37 751" fill="none" xmlns="http://www.w3.org/2000/svg">
<path d="M35 19.5813C35 29.813 27.3198 37.9776 18 37.9776C8.6802 37.9776 1 29.813 1 19.5813C1 9.34968 8.6802 1.18506 18 1.18506C27.3198 1.18506 35 9.34968 35 19.5813Z" stroke="#B62569" stroke-width="2"/>
<path d="M35 19.5813C35 29.813 27.3198 37.9776 18 37.9776C8.6802 37.9776 1 29.813 1 19.5813C1 9.34968 8.6802 1.18506 18 1.18506C27.3198 1.18506 35 9.34968 35 19.5813Z" stroke="#B62569" stroke-width="2"/>
<path d="M35 265.267C35 275.499 27.3198 283.664 18 283.664C8.6802 283.664 1 275.499 1 265.267C1 255.036 8.6802 246.871 18 246.871C27.3198 246.871 35 255.036 35 265.267Z" stroke="#B62569" stroke-width="2"/>
<path d="M36 517.419C36 527.65 28.3198 535.815 19 535.815C9.6802 535.815 2 527.65 2 517.419C2 507.187 9.6802 499.022 19 499.022C28.3198 499.022 36 507.187 36 517.419Z" stroke="#B62569" stroke-width="2"/>
<ellipse cx="18" cy="19.5813" rx="7" ry="7.54299" fill="#B62569"/>
<ellipse cx="18" cy="19.5813" rx="7" ry="7.54299" fill="#B62569"/>
<ellipse cx="18" cy="265.267" rx="7" ry="7.54299" fill="#B62569"/>
<ellipse cx="19" cy="517.419" rx="7" ry="7.54299" fill="#B62569"/>
<line y1="-1.5" x2="244.61" y2="-1.5" transform="matrix(0.00473471 0.999989 -0.999985 0.00549772 17 20.6588)" stroke="#B62569" stroke-width="3"/>
<line y1="-1.5" x2="244.61" y2="-1.5" transform="matrix(0.00473471 0.999989 -0.999985 0.00549772 17 272.81)" stroke="#B62569" stroke-width="3"/>
<line y1="-1.5" x2="244.61" y2="-1.5" transform="matrix(0.00473471 0.999989 -0.999985 0.00549772 17 505.565)" stroke="#B62569" stroke-width="3"/>
</svg>
